<?xml version="1.0" encoding="UTF-8" standalone="no" ?>
<!DOCTYPE svg PUBLIC "-//W3C//DTD SVG 1.1//EN" "http://www.w3.org/Graphics/SVG/1.1/DTD/svg11.dtd">
<svg xmlns="http://www.w3.org/2000/svg" xmlns:xlink="http://www.w3.org/1999/xlink" version="1.1" width="1080" height="1080" viewBox="0 0 1080 1080" xml:space="preserve">
<desc>Created with Fabric.js 5.2.4</desc>
<defs>
</defs>
<g transform="matrix(1 0 0 1 540 540)" id="0381eb5b-b698-48fa-8e76-48277f564678"  >
<rect style="stroke: none; stroke-width: 1; stroke-dasharray: none; stroke-linecap: butt; stroke-dashoffset: 0; stroke-linejoin: miter; stroke-miterlimit: 4; fill: rgb(255,255,255); fill-rule: nonzero; opacity: 1; visibility: hidden;" vector-effect="non-scaling-stroke"  x="-540" y="-540" rx="0" ry="0" width="1080" height="1080" />
</g>
<g transform="matrix(1 0 0 1 540 540)" id="c616d25b-d63a-4693-8122-d2e84d4d4f90"  >
</g>
<g transform="matrix(1 0 0 1 540 540)"  >
<g style="" vector-effect="non-scaling-stroke"   >
		<g transform="matrix(1 0 0 1 0.33 -232.66)"  >
<path style="stroke: none; stroke-width: 1; stroke-dasharray: none; stroke-linecap: butt; stroke-dashoffset: 0; stroke-linejoin: miter; stroke-miterlimit: 4; fill: rgb(136,0,16); fill-rule: evenodd; opacity: 1;" vector-effect="non-scaling-stroke"  transform=" translate(-818.02, -496.56)" d="M 406 165.56 C 384.651 170.162 370.729 185.023 365.915 208.349 C 364.109 217.097 364.026 224.595 364.013 378.615 L 364 539.729 L 374.258 560.115 C 391.458 594.298 407.138 616.946 429.474 639.869 C 460.087 671.286 486.538 687.343 531 701.497 C 577.324 716.245 615.295 748.975 645.624 800.299 L 651 809.397 L 650.997 564.449 C 650.995 392.644 650.666 316.813 649.896 310.5 C 646.088 279.301 633.199 253.051 610.786 230.848 C 576.521 196.905 519.742 173.229 454.006 165.474 C 438.456 163.639 414.713 163.682 406 165.56 M 1188.5 164.686 C 1186.3 164.879 1178.2 165.954 1170.5 167.075 C 1111.611 175.648 1060.442 197.689 1028.396 228.285 C 1010.539 245.335 999.606 262.052 992.587 283.041 C 985.334 304.726 985.817 292.665 984.988 473 C 983.897 710.16 983.934 830.781 985.097 829 C 985.635 828.175 989.472 821.2 993.623 813.5 C 1017.893 768.477 1047.522 735.731 1081.663 716.193 C 1093.635 709.342 1102.173 705.798 1123.275 698.923 C 1144.418 692.034 1161.147 684.1 1177.5 673.206 C 1212.721 649.741 1242.047 616.584 1265.866 573.291 L 1272.033 562.082 L 1271.766 385.791 L 1271.5 209.5 L 1269.152 202.5 C 1262.066 181.371 1250.102 170.009 1230.303 165.602 C 1223.563 164.102 1200.856 163.605 1188.5 164.686" stroke-linecap="round" />
</g>
		<g transform="matrix(1 0 0 1 -0.09 224.45)"  >
<path style="stroke: none; stroke-width: 1; stroke-dasharray: none; stroke-linecap: butt; stroke-dashoffset: 0; stroke-linejoin: miter; stroke-miterlimit: 4; fill: rgb(136,0,16); fill-rule: evenodd; opacity: 1;" vector-effect="non-scaling-stroke"  transform=" translate(-817.59, -953.67)" d="M 363.601 718.25 C 362.387 897.542 364.958 942.676 379.368 995.006 C 398.659 1065.064 441.894 1129.322 505 1181.728 C 598.195 1259.121 717.106 1298.945 840.021 1293.927 C 889.535 1291.905 935.553 1283.516 982 1268.045 C 1023.717 1254.149 1056.786 1237.968 1093.5 1213.487 C 1183.901 1153.206 1245.797 1064.686 1265.5 967.5 C 1271.593 937.443 1271.334 945.268 1271.72 780.047 C 1271.914 696.747 1271.875 628.797 1271.632 629.047 C 1271.389 629.296 1268.632 633.071 1265.506 637.435 C 1256.965 649.358 1246.573 661.199 1233.368 674.053 C 1203.828 702.81 1171.321 722.73 1129 738.011 C 1088.769 752.536 1063.532 769.841 1039.324 799.5 C 1031.9 808.595 1020.98 826.299 1014.033 840.5 C 1000.499 868.165 985.425 911.351 984.014 926.5 C 983.069 936.644 981.977 941.92 979.095 950.254 C 969.543 977.874 944.048 1002.756 906.52 1021.082 C 849.196 1049.075 791.603 1049.906 737.5 1023.52 C 716.738 1013.394 701.217 1002.194 688.278 988 C 667.302 964.989 653.959 932.491 652.352 900.5 C 651.779 889.091 651.503 887.884 646.751 876 C 636.543 850.472 618.899 818.454 605.183 800.567 C 586.816 776.615 563.093 756.783 540.447 746.449 C 536.568 744.678 526.794 741.142 518.728 738.589 C 457.577 719.238 412.632 684.593 374.284 627.25 C 369.043 619.413 364.655 613 364.534 613 C 364.413 613 363.993 660.362 363.601 718.25" stroke-linecap="round" />
</g>
</g>
</g>
</svg>